<svg width="140" height="132" viewBox="0 0 140 132" fill="none" xmlns="http://www.w3.org/2000/svg">
<path d="M77.31 5.61991C76.8648 6.31056 76.2966 6.74159 75.7488 7.19284C75.1541 7.68347 74.4945 8.03528 73.7633 8.28762C73.1183 8.50713 72.5675 8.9141 72.1149 9.40139C71.2699 10.3153 70.2446 10.9701 69.1787 11.5845C68.5137 11.9691 67.8565 12.3887 67.2574 12.8651C66.8434 13.1971 66.5331 13.6575 66.1588 14.077C65.6481 13.8001 65.2467 14.0534 64.9122 14.4559C64.2219 15.2877 63.3541 15.8643 62.4161 16.3753C61.9062 16.6543 61.4739 17.0574 61.2444 17.6222C61.2131 17.6911 61.1565 17.7491 61.1066 17.8081C60.4548 17.6324 59.9811 17.9377 59.5385 18.3424C58.8244 18.9883 58.0956 19.6217 57.3815 20.2676C56.8997 20.7063 56.4261 21.1564 55.9497 21.6027C55.48 22.0501 55.0667 22.5439 54.391 22.7449C53.5528 22.9929 52.9128 23.5972 52.243 24.136C51.4797 24.7536 50.7713 25.4476 49.9634 25.987C48.5844 26.9131 47.3147 27.9753 46.0027 28.9867C45.3753 29.4719 44.7314 29.9341 44.127 30.4433C43.5112 30.9608 42.9174 31.5088 42.3422 32.0667C41.7278 32.6584 41.1382 33.2846 40.5441 33.8966C40.1571 34.2904 40.1059 34.8142 40.1191 35.3149C40.1231 35.457 40.4445 35.6553 40.6501 35.7165C41.2986 35.9119 41.9328 35.822 42.549 35.5303C43.9342 34.8781 45.2181 34.0608 46.4608 33.1861C47.5778 32.4016 48.6316 31.5292 49.6788 30.6557C50.892 29.6515 52.1601 28.7238 53.4623 27.8354C54.4798 27.1456 55.4516 26.3842 56.4553 25.6752C57.3916 25.009 58.3498 24.3733 59.2925 23.7081C60.3344 22.9718 61.379 22.2394 62.4054 21.4736C63.8634 20.3921 65.2956 19.2828 66.7509 18.1976C67.7849 17.4263 68.8217 16.6589 69.9931 16.0789C70.6589 15.7517 71.2453 15.2496 71.8181 14.7688C72.6439 14.0774 73.5555 13.5216 74.4572 12.9439C75.5576 12.2409 76.6608 11.5418 77.7623 10.8323C78.0781 10.6288 78.3719 10.3947 78.6877 10.1911C78.7715 10.131 78.8911 10.1205 78.9914 10.0833C79.0044 10.1899 79.0585 10.3134 79.0239 10.402C78.8205 10.9307 78.5891 11.4447 78.3856 11.9734C77.8481 13.3797 77.3106 14.786 76.7824 16.1972C76.5796 16.7429 76.6111 17.3174 76.623 17.8887C76.6306 18.2369 76.8825 18.3866 77.1244 18.5144C77.357 18.6373 77.5934 18.8619 77.8958 18.7202C78.1035 18.6233 78.3111 18.5265 78.5088 18.4078C79.4923 17.8235 80.1665 16.9452 80.7974 16.0227C81.2477 15.3632 81.6711 14.6824 82.1399 14.0327C82.3358 13.7588 82.399 13.4931 82.3637 13.1705C82.3398 12.9442 82.2741 12.684 82.679 12.7413C82.8572 12.7641 82.991 12.6449 83.0222 12.4311C83.0694 12.119 83.157 11.8068 83.2014 11.4908C83.2299 11.2732 83.3392 11.16 83.5172 11.038C84.1956 10.5916 84.5491 9.92614 84.6214 9.12632C84.6677 8.61188 84.8677 8.1668 85.1569 7.77361C85.4934 7.31753 85.7506 6.83142 85.865 6.29125C86.0762 5.29894 86.2415 4.299 86.4002 3.29797C86.4666 2.8677 86.0836 2.34252 85.6565 2.21424C84.8893 1.98224 84.1168 1.78305 83.3555 1.5352C82.9465 1.3998 82.5605 1.18404 82.1567 1.01584C81.9926 0.948125 81.801 0.842158 81.6444 0.873387C81.0295 0.990102 80.4705 0.782614 79.8884 0.655497C79.6478 0.602029 79.3887 0.53873 79.1513 0.569996C78.378 0.667099 77.608 0.784976 76.8458 0.937837C76.6232 0.981671 76.4407 1.19386 76.2299 1.3104C76.134 1.36183 75.9825 1.42422 75.9081 1.38489C75.2484 1.0293 74.578 1.05255 73.9405 1.371C72.9663 1.85579 71.9063 2.06017 70.8789 2.37442C69.6956 2.73684 68.515 3.10309 67.3245 3.44748C66.4061 3.71248 65.5511 4.10592 64.7375 4.5972C64.3906 4.80563 64.2342 5.1266 64.268 5.47919C64.3485 6.25052 64.2738 6.27515 65.0179 6.58752C65.1596 6.64814 65.3073 6.6929 65.4392 6.77211C65.954 7.08676 66.4534 6.91379 66.9826 6.80641C67.8882 6.62014 68.805 6.48962 69.7208 6.36567C70.9219 6.20496 72.1244 6.07814 73.3234 5.93055C73.9723 5.85318 74.6135 5.74083 75.2619 5.68697C75.9104 5.6331 76.5608 5.63008 77.2858 5.60243L77.31 5.61991Z" fill="#101214"/>
<path d="M132.08 22.5251C131.966 23.2455 131.658 23.7997 131.373 24.3631C131.064 24.9752 130.653 25.4982 130.147 25.9664C129.699 26.3768 129.397 26.9053 129.203 27.4636C128.842 28.5091 128.241 29.4096 127.593 30.2919C127.189 30.8435 126.803 31.4205 126.486 32.0227C126.268 32.4412 126.18 32.9263 126.026 33.4013C125.509 33.3609 125.273 33.7109 125.145 34.1579C124.881 35.0811 124.381 35.8614 123.799 36.6138C123.484 37.0238 123.276 37.5064 123.292 38.0471C123.291 38.1143 123.266 38.1816 123.247 38.2475C122.651 38.34 122.375 38.7582 122.159 39.2459C121.809 40.027 121.442 40.8033 121.092 41.5844C120.857 42.1137 120.633 42.6493 120.405 43.1829C120.183 43.7149 120.023 44.2643 119.544 44.6708C118.949 45.174 118.645 45.8947 118.292 46.5729C117.892 47.3487 117.564 48.1668 117.098 48.8953C116.307 50.1433 115.653 51.4621 114.947 52.7551C114.609 53.3746 114.25 53.9814 113.941 54.6121C113.624 55.2536 113.337 55.912 113.069 56.5716C112.78 57.2729 112.525 57.9931 112.261 58.7035C112.087 59.1622 112.234 59.6053 112.425 60.0065C112.479 60.1203 112.813 60.1652 113.003 60.1407C113.603 60.0653 114.088 59.7638 114.486 59.3052C115.382 58.2771 116.135 57.1517 116.835 55.9945C117.464 54.9559 118.009 53.8688 118.549 52.7831C119.178 51.5316 119.878 50.3223 120.621 49.1326C121.203 48.2066 121.722 47.239 122.286 46.3024C122.81 45.4247 123.363 44.564 123.893 43.6848C124.478 42.7123 125.067 41.742 125.628 40.7511C126.429 39.3487 127.198 37.9331 127.995 36.5287C128.561 35.5306 129.131 34.5347 129.878 33.6422C130.303 33.1369 130.601 32.5184 130.895 31.9221C131.32 31.0639 131.864 30.2847 132.392 29.4913C133.037 28.5247 133.685 27.5602 134.329 26.5879C134.513 26.3091 134.669 26.0134 134.853 25.7346C134.9 25.6556 134.994 25.604 135.062 25.5377C135.111 25.6194 135.2 25.7 135.204 25.7843C135.228 26.2863 135.225 26.7864 135.249 27.2884C135.317 28.6223 135.385 29.9562 135.463 31.2908C135.494 31.8063 135.727 32.2607 135.943 32.7196C136.074 32.9992 136.334 33.0298 136.578 33.0462C136.812 33.062 137.086 33.1588 137.282 32.9349C137.416 32.7815 137.551 32.6282 137.669 32.4607C138.262 31.6324 138.495 30.6773 138.678 29.702C138.808 29.005 138.908 28.3004 139.056 27.6047C139.117 27.312 139.073 27.0737 138.928 26.825C138.827 26.6501 138.68 26.4628 139.031 26.3633C139.185 26.3176 139.251 26.1727 139.199 25.9882C139.125 25.7181 139.084 25.4334 139.006 25.1612C138.951 24.9745 139 24.8433 139.101 24.6802C139.494 24.0738 139.543 23.4068 139.313 22.7323C139.166 22.2986 139.168 21.8656 139.263 21.4426C139.373 20.9515 139.408 20.4647 139.306 19.9855C139.121 19.1049 138.896 18.2346 138.664 17.3658C138.563 16.993 138.061 16.7053 137.666 16.7552C136.956 16.8437 136.254 16.9607 135.543 17.0341C135.16 17.0718 134.768 17.036 134.377 17.0452C134.219 17.0495 134.024 17.0326 133.908 17.1144C133.448 17.4307 132.917 17.464 132.396 17.5707C132.18 17.6141 131.946 17.6562 131.763 17.7671C131.167 18.1246 130.581 18.4977 130.014 18.8964C129.848 19.0122 129.775 19.25 129.645 19.4205C129.585 19.4967 129.484 19.6019 129.409 19.5969C128.743 19.5464 128.204 19.8069 127.798 20.2949C127.177 21.0391 126.386 21.5869 125.66 22.212C124.825 22.9324 123.993 23.6549 123.146 24.3633C122.491 24.9092 121.935 25.5364 121.448 26.2279C121.24 26.522 121.228 26.8386 121.383 27.1122C121.727 27.7086 121.675 27.7555 122.395 27.7405C122.532 27.7386 122.669 27.7216 122.805 27.7383C123.339 27.8078 123.684 27.4876 124.077 27.2098C124.75 26.7323 125.451 26.296 126.154 25.8654C127.076 25.3021 128.012 24.7658 128.938 24.214C129.44 23.9173 129.923 23.5951 130.433 23.3177C130.943 23.0403 131.473 22.8034 132.054 22.5196L132.08 22.5251Z" fill="#101214"/>
<path d="M39.0833 102.19C38.6067 102.857 38.0192 103.259 37.451 103.681C36.8343 104.141 36.1589 104.458 35.4166 104.673C34.762 104.859 34.1929 105.237 33.7182 105.701C32.8319 106.57 31.7772 107.172 30.6839 107.731C30.0017 108.081 29.3257 108.466 28.7052 108.911C28.2762 109.221 27.945 109.665 27.5517 110.065C27.054 109.763 26.6413 109.995 26.2885 110.38C25.5606 111.175 24.6669 111.706 23.706 112.169C23.1837 112.421 22.7332 112.802 22.478 113.354C22.4435 113.421 22.3843 113.476 22.3317 113.532C21.6884 113.324 21.2011 113.604 20.7401 113.986C19.9969 114.594 19.2395 115.189 18.4963 115.798C17.9947 116.211 17.5008 116.637 17.0043 117.058C16.5143 117.48 16.0786 117.952 15.3942 118.119C14.5452 118.323 13.8779 118.894 13.1839 119.398C12.3927 119.976 11.653 120.632 10.8208 121.13C9.40029 121.984 8.08272 122.98 6.72522 123.922C6.07597 124.375 5.41129 124.803 4.78397 125.281C4.14485 125.766 3.52629 126.283 2.92588 126.811C2.28477 127.37 1.66681 127.965 1.04506 128.546C0.640243 128.919 0.565129 129.44 0.555359 129.94C0.552762 130.082 0.864906 130.297 1.06757 130.368C1.70672 130.596 2.34455 130.539 2.97381 130.279C4.38796 129.698 5.70852 128.948 6.99051 128.138C8.14273 127.412 9.23581 126.595 10.3224 125.776C11.5808 124.835 12.8907 123.974 14.2327 123.153C15.2811 122.516 16.2872 121.806 17.3228 121.149C18.289 120.532 19.2757 119.946 20.2484 119.33C21.3233 118.648 22.4008 117.97 23.4616 117.258C24.9682 116.253 26.4504 115.218 27.9545 114.209C29.0232 113.492 30.0945 112.778 31.2917 112.259C31.9721 111.966 32.5811 111.495 33.1756 111.044C34.0326 110.396 34.9691 109.887 35.8966 109.357C37.0286 108.711 38.1631 108.069 39.2964 107.417C39.6213 107.23 39.9256 107.011 40.2506 106.824C40.3371 106.768 40.457 106.764 40.559 106.732C40.5671 106.839 40.6155 106.965 40.5769 107.052C40.3493 107.569 40.0945 108.071 39.867 108.588C39.2653 109.965 38.6637 111.341 38.0712 112.723C37.8434 113.257 37.8486 113.833 37.8343 114.404C37.8259 114.752 38.0708 114.914 38.3067 115.054C38.5336 115.188 38.7595 115.425 39.0682 115.298C39.2801 115.212 39.492 115.126 39.695 115.018C40.7047 114.485 41.4188 113.642 42.0916 112.753C42.5718 112.118 43.0261 111.46 43.5244 110.835C43.7327 110.572 43.8081 110.31 43.7876 109.986C43.774 109.759 43.7204 109.496 44.1224 109.573C44.2994 109.605 44.4385 109.493 44.4795 109.281C44.541 108.972 44.6429 108.665 44.7018 108.352C44.7402 108.136 44.8546 108.028 45.0381 107.916C45.7365 107.505 46.1203 106.858 46.2292 106.063C46.299 105.552 46.5193 105.118 46.8264 104.74C47.1836 104.302 47.4629 103.83 47.602 103.297C47.8585 102.317 48.0696 101.327 48.2741 100.336C48.3601 99.9094 48.0014 99.3656 47.5805 99.2158C46.8244 98.9451 46.0616 98.7069 45.3122 98.4206C44.9096 98.2646 44.5337 98.0296 44.138 97.8411C43.977 97.7651 43.7904 97.6496 43.6325 97.6728C43.0127 97.7579 42.4635 97.5223 41.8876 97.3657C41.6497 97.3001 41.3936 97.2237 41.1549 97.2428C40.3776 97.3004 39.6028 97.3788 38.8341 97.4926C38.6096 97.525 38.4175 97.7275 38.2015 97.8331C38.1033 97.8796 37.949 97.9341 37.8765 97.8911C37.2336 97.5025 36.5625 97.4915 35.9108 97.777C34.915 98.2113 33.8463 98.3613 32.8052 98.6227C31.606 98.9242 30.4094 99.2296 29.2039 99.5128C28.2739 99.7305 27.4015 100.08 26.5659 100.529C26.2096 100.719 26.0387 101.032 26.0563 101.385C26.1014 102.159 26.0256 102.18 26.7549 102.53C26.8937 102.598 27.0392 102.65 27.1674 102.736C27.6674 103.076 28.1744 102.929 28.7082 102.849C29.6218 102.709 30.544 102.625 31.4648 102.548C32.6726 102.449 33.88 102.384 35.0851 102.297C35.7371 102.253 36.383 102.174 37.0335 102.153C37.6841 102.132 38.3341 102.162 39.06 102.172L39.0833 102.19Z" fill="#101214"/>
</svg>
