<svg width="587" height="126" viewBox="0 0 587 126" fill="none" xmlns="http://www.w3.org/2000/svg">
<path d="M134.215 105.134C133.64 104.547 132.996 104.24 132.368 103.909C131.686 103.549 130.969 103.338 130.202 103.239C129.526 103.155 128.904 102.868 128.362 102.482C127.35 101.758 126.213 101.325 125.045 100.939C124.316 100.697 123.587 100.419 122.904 100.074C122.431 99.8326 122.034 99.4445 121.583 99.1095C121.139 99.4842 120.694 99.3174 120.285 98.9909C119.441 98.3161 118.474 97.9272 117.452 97.6167C116.897 97.4467 116.392 97.1395 116.052 96.6328C116.008 96.5717 115.941 96.5264 115.88 96.4787C115.277 96.7827 114.751 96.5797 114.236 96.273C113.406 95.785 112.564 95.3123 111.734 94.8244C111.173 94.4924 110.618 94.1474 110.061 93.8068C109.511 93.4638 109.006 93.0639 108.304 93.004C107.433 92.9308 106.684 92.4685 105.919 92.0765C105.046 91.6264 104.212 91.0901 103.311 90.7255C101.773 90.0978 100.315 89.3146 98.8254 88.5899C98.1127 88.2418 97.3886 87.9195 96.6936 87.5432C95.9858 87.1612 95.2933 86.7447 94.6171 86.3149C93.8956 85.8598 93.1914 85.3659 92.4857 84.8869C92.0269 84.5796 91.8708 84.0771 91.7824 83.584C91.7574 83.4441 92.032 83.1848 92.221 83.0833C92.8165 82.7606 93.4557 82.7203 94.1183 82.8811C95.6068 83.2394 97.0297 83.7798 98.4237 84.3847C99.6764 84.9267 100.885 85.5677 102.087 86.2111C103.479 86.9489 104.908 87.6006 106.364 88.2069C107.5 88.6764 108.606 89.2253 109.732 89.7163C110.784 90.1792 111.851 90.6077 112.909 91.0682C114.078 91.5783 115.249 92.0841 116.41 92.6262C118.056 93.39 119.683 94.1863 121.328 94.9544C122.497 95.5004 123.668 96.042 124.932 96.3728C125.651 96.5584 126.327 96.9314 126.985 97.2862C127.934 97.796 128.939 98.1558 129.939 98.5389C131.159 99.0045 132.381 99.4658 133.603 99.9376C133.953 100.073 134.289 100.243 134.639 100.378C134.733 100.42 134.853 100.406 134.958 100.422C134.949 100.315 134.977 100.183 134.926 100.104C134.619 99.6269 134.289 99.1704 133.982 98.6939C133.171 97.4255 132.36 96.1572 131.557 94.8822C131.248 94.3889 131.163 93.8199 131.059 93.258C130.995 92.9155 131.212 92.7179 131.423 92.5437C131.626 92.3763 131.812 92.1085 132.137 92.186C132.36 92.2389 132.583 92.2917 132.8 92.3679C133.882 92.7409 134.72 93.4645 135.524 94.2402C136.099 94.7948 136.651 95.3758 137.242 95.9171C137.489 96.1457 137.605 96.3931 137.636 96.7161C137.658 96.9426 137.646 97.2107 138.031 97.0726C138.201 97.0142 138.356 97.1038 138.43 97.3068C138.54 97.603 138.689 97.891 138.796 98.1914C138.868 98.3988 138.998 98.4875 139.197 98.5709C139.952 98.8707 140.433 99.4508 140.665 100.219C140.815 100.714 141.101 101.109 141.464 101.436C141.886 101.814 142.236 102.238 142.457 102.744C142.865 103.673 143.229 104.619 143.588 105.567C143.74 105.975 143.471 106.567 143.079 106.779C142.374 107.161 141.658 107.513 140.963 107.91C140.59 108.125 140.255 108.414 139.894 108.661C139.747 108.76 139.581 108.903 139.421 108.904C138.795 108.914 138.29 109.231 137.746 109.473C137.521 109.574 137.28 109.689 137.041 109.706C136.264 109.768 135.486 109.808 134.709 109.813C134.482 109.815 134.26 109.644 134.03 109.573C133.926 109.542 133.765 109.511 133.7 109.565C133.126 110.047 132.465 110.16 131.776 109.977C130.724 109.699 129.644 109.714 128.575 109.614C127.343 109.499 126.112 109.379 124.877 109.283C123.924 109.209 123.007 108.997 122.11 108.681C121.729 108.547 121.51 108.264 121.472 107.912C121.395 107.14 121.317 107.131 121.982 106.675C122.109 106.587 122.244 106.513 122.357 106.409C122.798 105.996 123.322 106.065 123.862 106.063C124.786 106.062 125.711 106.004 126.632 105.94C127.841 105.854 129.044 105.735 130.249 105.637C130.9 105.581 131.55 105.561 132.196 105.483C132.842 105.404 133.48 105.275 134.195 105.156L134.215 105.134Z" fill="#101214"/>
<path d="M184.432 77.4887C184.175 76.8064 183.76 76.3261 183.368 75.832C182.941 75.2951 182.432 74.8662 181.842 74.5102C181.321 74.1988 180.917 73.7426 180.614 73.2352C180.05 72.2843 179.279 71.5242 178.465 70.7914C177.958 70.3332 177.463 69.846 177.031 69.3206C176.732 68.955 176.549 68.4976 176.301 68.0636C175.803 68.2079 175.501 67.9129 175.285 67.5012C174.84 66.6505 174.192 65.9877 173.47 65.3686C173.078 65.031 172.777 64.6004 172.683 64.0677C172.669 64.002 172.631 63.9412 172.598 63.8806C171.996 63.9106 171.641 63.5571 171.331 63.1231C170.83 62.429 170.314 61.7431 169.813 61.0491C169.475 60.5783 169.147 60.0992 168.816 59.6229C168.491 59.1468 168.223 58.6411 167.672 58.3401C166.987 57.9677 166.543 57.3237 166.061 56.7308C165.511 56.0522 165.024 55.3175 164.421 54.6982C163.393 53.6365 162.486 52.4773 161.533 51.3542C161.077 50.8158 160.602 50.2942 160.171 49.7392C159.732 49.1751 159.317 48.5885 158.921 47.9969C158.497 47.3685 158.1 46.7149 157.698 46.0728C157.434 45.6588 157.489 45.1952 157.595 44.7635C157.625 44.641 157.943 44.5294 158.134 44.515C158.737 44.4673 159.273 44.6644 159.755 45.0329C160.841 45.8584 161.807 46.8079 162.725 47.7995C163.552 48.6892 164.306 49.6434 165.055 50.5973C165.924 51.6956 166.855 52.7379 167.823 53.7525C168.581 54.5416 169.285 55.3841 170.026 56.1871C170.717 56.9405 171.433 57.6714 172.13 58.4251C172.9 59.259 173.673 60.0901 174.424 60.9466C175.491 62.1579 176.531 63.3884 177.596 64.6024C178.353 65.4652 179.112 66.3252 180.025 67.0479C180.544 67.4565 180.96 68.0019 181.369 68.5262C181.959 69.2806 182.65 69.9336 183.327 70.6037C184.154 71.4197 184.985 72.2329 185.812 73.0548C186.049 73.2905 186.261 73.5486 186.498 73.7843C186.56 73.8522 186.662 73.8837 186.742 73.9348C186.774 73.8448 186.845 73.7479 186.831 73.6646C186.753 73.168 186.649 72.679 186.571 72.1824C186.368 70.8624 186.164 69.5423 185.97 68.2197C185.896 67.7085 186.032 67.2164 186.151 66.7233C186.223 66.4229 186.471 66.3404 186.706 66.275C186.932 66.2121 187.181 66.0618 187.418 66.2414C187.581 66.3644 187.744 66.4873 187.894 66.6273C188.642 67.3185 189.064 68.2065 189.44 69.1247C189.708 69.7809 189.949 70.4506 190.235 71.1019C190.355 71.3761 190.36 71.6184 190.268 71.8914C190.204 72.0831 190.098 72.2963 190.462 72.3227C190.622 72.3363 190.716 72.4648 190.703 72.656C190.685 72.9355 190.702 73.2226 190.681 73.5049C190.665 73.6989 190.739 73.8175 190.871 73.9567C191.379 74.471 191.562 75.1143 191.474 75.8213C191.417 76.276 191.507 76.6994 191.685 77.0946C191.893 77.5531 192.025 78.0228 192.023 78.5126C192.02 79.4125 191.975 80.3105 191.925 81.2081C191.901 81.5936 191.468 81.977 191.071 82.008C190.358 82.0651 189.646 82.0928 188.935 82.1648C188.553 82.2054 188.175 82.32 187.791 82.39C187.635 82.4179 187.448 82.4738 187.317 82.4174C186.803 82.2008 186.276 82.2757 185.744 82.2766C185.524 82.2778 185.286 82.2841 185.085 82.2124C184.429 81.9831 183.779 81.7363 183.143 81.4607C182.957 81.381 182.838 81.1627 182.676 81.0221C182.602 80.9596 182.482 80.877 182.41 80.8971C181.767 81.0816 181.186 80.9356 180.69 80.5399C179.932 79.9367 179.046 79.5605 178.209 79.0952C177.245 78.5589 176.284 78.0198 175.31 77.4977C174.559 77.0956 173.888 76.594 173.271 76.0154C173.007 75.7696 172.932 75.462 173.028 75.1626C173.244 74.509 173.183 74.4737 173.891 74.3425C174.026 74.3166 174.164 74.3055 174.294 74.2616C174.802 74.0854 175.205 74.3291 175.647 74.5215C176.402 74.853 177.177 75.1383 177.952 75.4176C178.97 75.7824 179.995 76.1181 181.013 76.4711C181.565 76.66 182.103 76.8777 182.658 77.0462C183.214 77.2146 183.781 77.3393 184.408 77.4994L184.432 77.4887Z" fill="#101214"/>
<path d="M47.231 28.3035C46.6293 27.747 45.9726 27.4729 45.3307 27.1741C44.6337 26.849 43.908 26.6748 43.1377 26.6148C42.4588 26.565 41.825 26.3098 41.2663 25.9521C40.2223 25.2803 39.0677 24.9049 37.8838 24.5788C37.1449 24.3741 36.4048 24.1336 35.707 23.8233C35.2241 23.6063 34.8099 23.2387 34.3438 22.9269C33.9176 23.3239 33.4665 23.1799 33.0431 22.8745C32.1692 22.2431 31.1864 21.9037 30.1519 21.6455C29.5892 21.5039 29.0711 21.2226 28.7093 20.7336C28.6619 20.6748 28.5928 20.6329 28.5299 20.5883C27.9422 20.9229 27.4081 20.7468 26.8795 20.4665C26.0284 20.0211 25.1662 19.5916 24.3152 19.1463C23.7403 18.843 23.1705 18.5266 22.599 18.2146C22.0336 17.8999 21.5113 17.5259 20.8074 17.5018C19.9345 17.473 19.1655 17.0492 18.3839 16.6965C17.4922 16.291 16.6348 15.7976 15.7192 15.4791C14.1551 14.9301 12.6632 14.2218 11.1429 13.5734C10.4155 13.2618 9.67779 12.9767 8.96677 12.636C8.24264 12.2903 7.53225 11.9094 6.83744 11.5143C6.09634 11.0962 5.37067 10.6386 4.64423 10.1958C4.17219 9.9121 3.9933 9.41784 3.88237 8.92961C3.85106 8.79098 4.11334 8.51787 4.29732 8.40681C4.87704 8.05398 5.5133 7.98111 6.18211 8.10808C7.68452 8.39028 9.12969 8.85785 10.5491 9.39138C11.8245 9.86923 13.0604 10.4482 14.2903 11.0299C15.7131 11.6964 17.1703 12.2748 18.6506 12.8066C19.8063 13.218 20.9354 13.7101 22.0825 14.1434C23.1537 14.5524 24.2386 14.9263 25.3158 15.3326C26.5065 15.7828 27.699 16.2286 28.8821 16.7112C30.561 17.3906 32.2219 18.1036 33.8992 18.7874C35.091 19.2734 36.2846 19.755 37.5622 20.0212C38.2877 20.1701 38.9796 20.5084 39.653 20.8295C40.6235 21.2906 41.6435 21.5989 42.6593 21.9309C43.8986 22.334 45.1395 22.7328 46.3814 23.142C46.7374 23.2594 47.0798 23.412 47.4358 23.5294C47.5319 23.5665 47.6502 23.5465 47.7565 23.5572C47.7428 23.4507 47.7647 23.3174 47.7094 23.2404C47.3817 22.7797 47.0307 22.3404 46.7031 21.8797C45.8352 20.6535 44.9673 19.4273 44.1072 18.194C43.776 17.7167 43.6646 17.1524 43.535 16.5962C43.4563 16.2571 43.6632 16.0486 43.8659 15.8638C44.0609 15.6862 44.2343 15.4091 44.5621 15.47C44.7871 15.5114 45.0121 15.5528 45.2328 15.6179C46.3296 15.9356 47.1994 16.616 48.0382 17.3502C48.6371 17.8753 49.2153 18.4277 49.8298 18.9385C50.0871 19.1544 50.214 19.3958 50.2595 19.717C50.2922 19.9422 50.2929 20.2107 50.6708 20.0532C50.8377 19.9861 50.9967 20.0678 51.0797 20.2669C51.2025 20.5573 51.3645 20.8375 51.4856 21.1323C51.5669 21.3358 51.7007 21.4179 51.9032 21.4911C52.6704 21.7523 53.1771 22.3075 53.4447 23.0637C53.6166 23.5502 53.9202 23.9308 54.2974 24.2386C54.7359 24.5953 55.1051 25.0012 55.3493 25.4954C55.7989 26.403 56.206 27.3296 56.607 28.2589C56.7775 28.6589 56.5363 29.264 56.1545 29.496C55.4689 29.9142 54.7701 30.3019 54.0942 30.7339C53.7315 30.9682 53.411 31.2745 53.0616 31.5393C52.9194 31.6462 52.7601 31.7972 52.6007 31.8064C51.9765 31.8485 51.4864 32.1905 50.9541 32.4604C50.7344 32.5728 50.4991 32.6995 50.2615 32.7291C49.4887 32.8302 48.714 32.9102 47.9382 32.9545C47.7118 32.9682 47.4826 32.8087 47.2497 32.7491C47.1442 32.7234 46.9821 32.7013 46.9197 32.7581C46.3688 33.2688 45.7138 33.4154 45.0179 33.2679C43.9548 33.0442 42.8778 33.1137 41.8053 33.0685C40.5699 33.0161 39.3363 32.9592 38.0984 32.926C37.1436 32.9011 36.2185 32.7357 35.3093 32.4652C34.9219 32.3509 34.6912 32.0795 34.6368 31.7296C34.5243 30.9624 34.4458 30.9573 35.0892 30.4672C35.2114 30.3727 35.3433 30.2921 35.4516 30.1821C35.8723 29.7476 36.3986 29.7891 36.9376 29.7596C37.8605 29.7116 38.7805 29.6067 39.6979 29.4957C40.9007 29.3483 42.0964 29.1678 43.2939 29.0083C43.9414 28.9195 44.59 28.8666 45.2313 28.7552C45.8725 28.6437 46.503 28.4826 47.212 28.3265L47.231 28.3035Z" fill="#101214"/>
<path d="M396.308 113.049C396.763 112.328 397.349 111.877 397.914 111.405C398.528 110.891 399.21 110.522 399.968 110.255C400.637 110.023 401.205 109.597 401.671 109.088C402.54 108.133 403.599 107.446 404.701 106.801C405.389 106.398 406.068 105.958 406.686 105.459C407.113 105.111 407.431 104.631 407.816 104.193C408.35 104.477 408.765 104.212 409.109 103.791C409.817 102.923 410.714 102.318 411.684 101.782C412.212 101.489 412.657 101.067 412.889 100.479C412.921 100.407 412.979 100.346 413.031 100.285C413.711 100.463 414.2 100.143 414.656 99.72C415.392 99.0445 416.143 98.3818 416.879 97.7063C417.375 97.2475 417.863 96.7769 418.354 96.3102C418.838 95.8424 419.262 95.3267 419.963 95.1138C420.832 94.851 421.491 94.2191 422.182 93.6551C422.97 93.0087 423.699 92.2832 424.533 91.7178C425.958 90.747 427.267 89.6354 428.621 88.5765C429.268 88.0685 429.933 87.5842 430.556 87.0514C431.191 86.5099 431.803 85.9368 432.395 85.3536C433.028 84.7349 433.634 84.0806 434.245 83.441C434.644 83.0294 434.691 82.4849 434.672 81.9646C434.666 81.8169 434.329 81.6128 434.115 81.5505C433.438 81.3513 432.779 81.4486 432.141 81.7554C430.707 82.4417 429.38 83.2988 428.097 84.2153C426.943 85.0372 425.857 85.9502 424.777 86.8643C423.526 87.9153 422.217 88.887 420.872 89.8181C419.821 90.5411 418.818 91.3383 417.782 92.0811C416.815 92.7791 415.825 93.4455 414.852 94.1425C413.776 94.914 412.697 95.6815 411.638 96.4835C410.133 97.6162 408.655 98.7776 407.153 99.9142C406.086 100.722 405.015 101.526 403.803 102.136C403.114 102.48 402.509 103.005 401.919 103.508C401.067 104.232 400.125 104.815 399.193 105.421C398.056 106.158 396.916 106.891 395.778 107.635C395.452 107.848 395.149 108.093 394.822 108.307C394.736 108.37 394.612 108.381 394.508 108.421C394.493 108.31 394.435 108.182 394.47 108.09C394.676 107.539 394.911 107.004 395.116 106.453C395.66 104.988 396.203 103.524 396.737 102.054C396.942 101.485 396.903 100.889 396.884 100.295C396.872 99.9332 396.608 99.7792 396.355 99.6478C396.111 99.5215 395.863 99.2896 395.55 99.4387C395.335 99.5406 395.12 99.6425 394.916 99.7671C393.899 100.38 393.207 101.297 392.561 102.259C392.1 102.948 391.667 103.658 391.187 104.336C390.986 104.621 390.923 104.898 390.963 105.233C390.991 105.468 391.062 105.738 390.64 105.681C390.455 105.658 390.317 105.783 390.287 106.005C390.241 106.33 390.153 106.655 390.111 106.984C390.084 107.21 389.971 107.328 389.787 107.456C389.086 107.924 388.726 108.618 388.66 109.449C388.618 109.984 388.414 110.448 388.118 110.858C387.773 111.334 387.511 111.841 387.398 112.403C387.189 113.436 387.029 114.476 386.875 115.517C386.811 115.964 387.215 116.508 387.661 116.639C388.462 116.875 389.268 117.077 390.063 117.33C390.49 117.469 390.894 117.69 391.316 117.863C391.488 117.932 391.688 118.041 391.851 118.008C392.49 117.883 393.074 118.095 393.681 118.224C393.932 118.278 394.202 118.342 394.449 118.308C395.252 118.202 396.052 118.075 396.844 117.912C397.075 117.865 397.262 117.643 397.48 117.521C397.579 117.467 397.736 117.401 397.814 117.441C398.505 117.807 399.202 117.779 399.862 117.444C400.87 116.934 401.971 116.715 403.036 116.383C404.264 115.999 405.488 115.611 406.723 115.246C407.676 114.965 408.561 114.551 409.402 114.036C409.76 113.817 409.92 113.482 409.88 113.116C409.788 112.315 409.865 112.289 409.087 111.969C408.939 111.907 408.785 111.861 408.647 111.78C408.108 111.456 407.59 111.639 407.041 111.753C406.1 111.952 405.148 112.094 404.196 112.228C402.948 112.402 401.698 112.541 400.452 112.702C399.778 112.786 399.112 112.907 398.438 112.967C397.764 113.027 397.087 113.034 396.333 113.067L396.308 113.049Z" fill="#101214"/>
<path d="M415.084 39.1325C415.577 38.435 416.186 38.0125 416.775 37.5682C417.414 37.085 418.115 36.7489 418.886 36.5193C419.566 36.3199 420.156 35.9217 420.648 35.4357C421.565 34.5241 422.66 33.8895 423.794 33.2987C424.502 32.9288 425.203 32.5222 425.847 32.054C426.291 31.7275 426.634 31.2631 427.041 30.8441C427.56 31.1543 427.988 30.9091 428.353 30.5059C429.107 29.6727 430.034 29.1123 431.031 28.6232C431.573 28.3561 432.04 27.9566 432.303 27.3802C432.338 27.3101 432.399 27.2524 432.454 27.1932C433.124 27.4047 433.629 27.1086 434.107 26.7079C434.877 26.0688 435.662 25.4433 436.432 24.8042C436.952 24.37 437.464 23.9235 437.978 23.4811C438.486 23.0373 438.937 22.5428 439.648 22.3641C440.53 22.1437 441.221 21.5444 441.941 21.0146C442.761 20.4071 443.527 19.7178 444.391 19.1934C445.864 18.2928 447.23 17.2459 448.637 16.2538C449.31 15.7777 450 15.3262 450.65 14.8242C451.313 14.3141 451.953 13.7713 452.576 13.2174C453.24 12.6301 453.88 12.0059 454.524 11.3967C454.943 11.0049 455.019 10.4632 455.027 9.9426C455.029 9.79482 454.703 9.57461 454.492 9.502C453.827 9.27028 453.164 9.33555 452.51 9.6111C451.042 10.2271 449.672 11.0189 448.343 11.8722C447.148 12.6373 446.015 13.4966 444.888 14.3573C443.584 15.3465 442.226 16.2537 440.834 17.1186C439.746 17.7898 438.703 18.5375 437.629 19.2292C436.627 19.8796 435.604 20.4973 434.595 21.1463C433.48 21.8647 432.363 22.5791 431.263 23.3289C429.7 24.3873 428.164 25.4758 426.604 26.5384C425.496 27.2935 424.385 28.0445 423.142 28.5949C422.436 28.9052 421.805 29.4007 421.188 29.8746C420.3 30.556 419.328 31.0928 418.366 31.6527C417.192 32.334 416.015 33.0111 414.839 33.6992C414.502 33.8965 414.187 34.1266 413.85 34.3239C413.76 34.3827 413.635 34.3882 413.529 34.4225C413.52 34.3112 413.47 34.1805 413.509 34.09C413.744 33.5499 414.006 33.0264 414.241 32.4863C414.86 31.0497 415.48 29.613 416.09 28.1708C416.325 27.6131 416.317 27.015 416.329 26.4212C416.336 26.0592 416.081 25.8926 415.835 25.7491C415.598 25.6112 415.362 25.3675 415.042 25.5012C414.822 25.5926 414.602 25.684 414.391 25.7985C413.344 26.3617 412.605 27.2439 411.909 28.174C411.413 28.8389 410.943 29.5272 410.428 30.1811C410.212 30.4569 410.135 30.7301 410.158 31.0666C410.173 31.3027 410.23 31.5759 409.811 31.4985C409.627 31.4668 409.483 31.5847 409.441 31.8053C409.379 32.1274 409.274 32.4478 409.214 32.774C409.175 32.9987 409.057 33.1114 408.866 33.2302C408.142 33.6637 407.746 34.3391 407.636 35.1666C407.566 35.6988 407.338 36.1522 407.021 36.5477C406.651 37.0064 406.363 37.4999 406.221 38.0558C405.958 39.077 405.743 40.1081 405.535 41.1407C405.447 41.5846 405.822 42.147 406.261 42.2992C407.048 42.5742 407.843 42.8153 408.623 43.1065C409.042 43.2653 409.434 43.5065 409.847 43.6991C410.014 43.7767 410.209 43.8952 410.373 43.8697C411.017 43.7758 411.589 44.0161 412.189 44.1739C412.437 44.2401 412.703 44.3173 412.951 44.2954C413.759 44.2289 414.565 44.1406 415.364 44.0157C415.597 43.98 415.796 43.7677 416.02 43.6561C416.122 43.6069 416.282 43.5488 416.358 43.593C417.028 43.9915 417.726 43.9971 418.402 43.6947C419.436 43.2344 420.547 43.0692 421.628 42.7884C422.874 42.4645 424.117 42.1365 425.369 41.8316C426.335 41.5972 427.241 41.2265 428.108 40.7524C428.478 40.5513 428.654 40.2249 428.634 39.8572C428.584 39.0526 428.663 39.0303 427.903 38.6729C427.758 38.6036 427.606 38.5506 427.473 38.4625C426.951 38.1129 426.425 38.2704 425.87 38.3584C424.921 38.5117 423.962 38.6066 423.005 38.6947C421.749 38.8083 420.494 38.8866 419.241 38.9867C418.563 39.0383 417.892 39.1265 417.216 39.1537C416.539 39.1809 415.863 39.1552 415.108 39.1517L415.084 39.1325Z" fill="#101214"/>
<path d="M536.955 52.5426C537.624 52.0108 538.327 51.7758 539.017 51.5141C539.767 51.2293 540.534 51.1028 541.338 51.0982C542.047 51.0972 542.725 50.8801 543.333 50.5512C544.471 49.9329 545.699 49.63 546.954 49.3805C547.737 49.2235 548.524 49.0295 549.273 48.7601C549.792 48.5712 550.251 48.2212 550.76 47.9329C551.17 48.3761 551.65 48.2605 552.114 47.9757C553.071 47.3867 554.118 47.1083 555.213 46.9179C555.808 46.8132 556.368 46.5604 556.783 46.0806C556.837 46.0232 556.912 45.985 556.981 45.9435C557.564 46.334 558.132 46.1914 558.703 45.9404C559.622 45.5424 560.551 45.1617 561.47 44.7637C562.091 44.4924 562.708 44.2071 563.326 43.9264C563.938 43.6425 564.51 43.2939 565.242 43.3215C566.15 43.3568 566.982 42.975 567.822 42.6678C568.78 42.3142 569.709 41.867 570.685 41.6052C572.352 41.1531 573.957 40.5305 575.587 39.972C576.366 39.7034 577.155 39.463 577.92 39.1631C578.699 38.8589 579.467 38.5172 580.22 38.1596C581.022 37.7817 581.812 37.3616 582.601 36.957C583.114 36.6983 583.339 36.1995 583.493 35.7019C583.536 35.5606 583.286 35.258 583.104 35.1292C582.53 34.7204 581.876 34.5974 581.171 34.6791C579.589 34.8594 578.052 35.2361 576.536 35.683C575.174 36.083 573.846 36.5907 572.523 37.1017C570.993 37.6861 569.434 38.1768 567.855 38.6174C566.623 38.9574 565.412 39.3831 564.187 39.7465C563.042 40.0904 561.886 40.3968 560.736 40.7375C559.464 41.1151 558.191 41.488 556.924 41.8999C555.127 42.4786 553.347 43.0934 551.551 43.6768C550.275 44.0915 548.998 44.5015 547.651 44.682C546.886 44.7822 546.141 45.0811 545.416 45.3635C544.372 45.769 543.289 46.0123 542.208 46.2805C540.89 46.6058 539.57 46.9264 538.248 47.2577C537.869 47.3528 537.502 47.4854 537.123 47.5805C537.02 47.6118 536.899 47.5822 536.788 47.5854C536.811 47.476 536.799 47.3363 536.862 47.2606C537.239 46.8077 537.638 46.3787 538.015 45.9258C539.014 44.72 540.012 43.5142 541.003 42.3004C541.385 41.8306 541.546 41.2542 541.725 40.6876C541.833 40.3421 541.635 40.1106 541.44 39.904C541.251 39.7053 541.093 39.4053 540.748 39.444C540.512 39.4701 540.275 39.4962 540.04 39.5472C538.877 39.7946 537.92 40.4347 536.99 41.1328C536.327 41.6322 535.683 42.1615 535.004 42.645C534.72 42.8495 534.569 43.0901 534.496 43.4195C534.444 43.6504 534.422 43.9286 534.042 43.7372C533.875 43.6552 533.703 43.728 533.601 43.9281C533.45 44.2199 533.26 44.4981 533.111 44.7946C533.01 44.9994 532.865 45.0744 532.649 45.1352C531.832 45.3485 531.261 45.886 530.923 46.6497C530.706 47.141 530.361 47.5126 529.945 47.8034C529.461 48.1403 529.045 48.5333 528.753 49.0272C528.214 49.9341 527.717 50.8639 527.227 51.7969C527.018 52.1986 527.22 52.8436 527.598 53.1125C528.276 53.5969 528.97 54.0508 529.638 54.5489C529.995 54.8187 530.304 55.16 530.645 55.4604C530.784 55.5818 530.938 55.7501 531.102 55.7716C531.747 55.8618 532.228 56.2527 532.759 56.5721C532.978 56.705 533.212 56.8538 533.457 56.9022C534.251 57.0645 535.048 57.2053 535.85 57.309C536.084 57.3401 536.334 57.192 536.581 57.1475C536.693 57.1289 536.863 57.118 536.923 57.1816C537.454 57.7519 538.122 57.9526 538.856 57.8516C539.977 57.6991 541.09 57.8515 542.206 57.8847C543.493 57.9225 544.778 57.9557 546.065 58.0136C547.058 58.059 548.032 57.9567 548.997 57.7443C549.408 57.6547 549.669 57.3907 549.754 57.0322C549.932 56.2456 550.013 56.2463 549.385 55.6903C549.265 55.5834 549.135 55.49 549.031 55.368C548.629 54.8863 548.08 54.8901 547.523 54.8193C546.569 54.7006 545.622 54.5233 544.679 54.3399C543.442 54.0975 542.215 53.8212 540.985 53.5666C540.32 53.4263 539.651 53.3231 538.994 53.1598C538.338 52.9965 537.696 52.7825 536.973 52.5678L536.955 52.5426Z" fill="#101214"/>
</svg>
